<?xml version="1.0" encoding="UTF-8"?>
<svg xmlns="http://www.w3.org/2000/svg" xmlns:xlink="http://www.w3.org/1999/xlink" width="189px" height="90px" viewBox="0 0 189 90" version="1.1">
<g id="surface1">
<path style=" stroke:none;fill-rule:nonzero;fill:rgb(0%,0%,0%);fill-opacity:1;" d="M 96.09375 33.597656 L 99.863281 33.597656 C 101.945312 33.597656 102.988281 32.71875 102.988281 30.957031 C 102.988281 29.199219 101.945312 28.316406 99.863281 28.316406 L 96.09375 28.316406 Z M 99.617188 35.273438 L 96.09375 35.273438 L 96.09375 41.40625 L 94.308594 41.40625 L 94.308594 26.640625 L 99.886719 26.640625 C 101.386719 26.640625 102.59375 27.027344 103.5 27.800781 C 104.40625 28.578125 104.859375 29.628906 104.859375 30.957031 C 104.859375 32 104.570312 32.882812 103.992188 33.597656 C 103.410156 34.3125 102.613281 34.804688 101.605469 35.074219 L 105.753906 41.40625 L 103.632812 41.40625 Z M 99.617188 35.273438 "/>
<path style=" stroke:none;fill-rule:nonzero;fill:rgb(0%,0%,0%);fill-opacity:1;" d="M 111.152344 41.40625 L 109.367188 41.40625 L 109.367188 30.21875 L 111.152344 30.21875 Z M 109.289062 27.703125 C 109.042969 27.457031 108.921875 27.132812 108.921875 26.730469 C 108.921875 26.328125 109.042969 26 109.289062 25.753906 C 109.535156 25.507812 109.859375 25.386719 110.261719 25.386719 C 110.664062 25.386719 110.984375 25.507812 111.230469 25.753906 C 111.476562 26 111.597656 26.328125 111.597656 26.730469 C 111.597656 27.132812 111.476562 27.457031 111.230469 27.703125 C 110.984375 27.949219 110.664062 28.070312 110.261719 28.070312 C 109.859375 28.070312 109.535156 27.949219 109.289062 27.703125 "/>
<path style=" stroke:none;fill-rule:nonzero;fill:rgb(0%,0%,0%);fill-opacity:1;" d="M 122.800781 40.621094 C 122.054688 41.292969 121.097656 41.628906 119.921875 41.628906 C 119.015625 41.628906 118.273438 41.382812 117.703125 40.890625 C 117.128906 40.398438 116.835938 39.644531 116.820312 38.632812 L 116.820312 31.761719 L 114.589844 31.761719 L 114.589844 30.21875 L 116.820312 30.21875 L 116.820312 27.535156 L 118.605469 27.042969 L 118.605469 30.21875 L 122.734375 30.21875 L 122.734375 31.761719 L 118.605469 31.761719 L 118.605469 38.316406 C 118.605469 38.855469 118.757812 39.261719 119.0625 39.535156 C 119.367188 39.8125 119.773438 39.949219 120.277344 39.949219 C 120.992188 39.949219 121.625 39.675781 122.175781 39.125 Z M 122.800781 40.621094 "/>
<path style=" stroke:none;fill-rule:nonzero;fill:rgb(0%,0%,0%);fill-opacity:1;" d="M 134.535156 31.089844 C 135.355469 31.820312 135.761719 32.875 135.761719 34.246094 L 135.761719 41.40625 L 133.980469 41.40625 L 133.980469 34.871094 C 133.980469 33.707031 133.730469 32.867188 133.230469 32.34375 C 132.734375 31.820312 132.066406 31.5625 131.234375 31.5625 C 130.652344 31.5625 130.101562 31.695312 129.570312 31.964844 C 129.042969 32.230469 128.613281 32.660156 128.277344 33.25 C 127.945312 33.839844 127.777344 34.582031 127.777344 35.476562 L 127.777344 41.40625 L 125.992188 41.40625 L 125.992188 25.074219 L 127.777344 25.074219 L 127.777344 31.898438 C 128.148438 31.257812 128.648438 30.777344 129.28125 30.464844 C 129.914062 30.152344 130.625 29.996094 131.414062 29.996094 C 132.675781 29.996094 133.71875 30.363281 134.535156 31.089844 "/>
<path style=" stroke:none;fill-rule:nonzero;fill:rgb(0%,0%,0%);fill-opacity:1;" d="M 155.519531 30.453125 C 156.167969 30.761719 156.691406 31.234375 157.09375 31.875 C 157.496094 32.515625 157.699219 33.304688 157.699219 34.246094 L 157.699219 41.40625 L 155.910156 41.40625 L 155.910156 34.425781 C 155.910156 33.453125 155.667969 32.734375 155.1875 32.265625 C 154.703125 31.796875 154.066406 31.5625 153.277344 31.5625 C 152.683594 31.5625 152.136719 31.707031 151.640625 31.996094 C 151.140625 32.289062 150.738281 32.714844 150.433594 33.273438 C 150.128906 33.832031 149.976562 34.5 149.976562 35.273438 L 149.976562 41.40625 L 148.191406 41.40625 L 148.191406 34.425781 C 148.191406 33.453125 147.949219 32.734375 147.464844 32.265625 C 146.984375 31.796875 146.347656 31.5625 145.558594 31.5625 C 145.023438 31.5625 144.503906 31.699219 143.996094 31.976562 C 143.492188 32.25 143.074219 32.679688 142.746094 33.261719 C 142.421875 33.84375 142.257812 34.566406 142.257812 35.433594 L 142.257812 41.40625 L 140.472656 41.40625 L 140.472656 30.21875 L 142.035156 30.21875 L 142.144531 31.964844 C 142.53125 31.308594 143.039062 30.816406 143.671875 30.488281 C 144.304688 30.160156 144.984375 29.996094 145.714844 29.996094 C 146.53125 29.996094 147.289062 30.183594 147.980469 30.554688 C 148.671875 30.925781 149.195312 31.472656 149.554688 32.1875 C 149.878906 31.472656 150.414062 30.925781 151.160156 30.554688 C 151.902344 30.183594 152.660156 29.996094 153.433594 29.996094 C 154.179688 29.996094 154.875 30.148438 155.519531 30.453125 "/>
<path style=" stroke:none;fill-rule:nonzero;fill:rgb(0%,0%,0%);fill-opacity:1;" d="M 105.472656 51.917969 L 103.933594 53.171875 C 103.484375 52.1875 102.953125 51.492188 102.335938 51.082031 C 101.71875 50.671875 100.875 50.464844 99.804688 50.464844 C 98.671875 50.464844 97.785156 50.699219 97.136719 51.171875 C 96.492188 51.640625 96.167969 52.242188 96.167969 52.972656 C 96.167969 53.449219 96.292969 53.84375 96.546875 54.15625 C 96.800781 54.46875 97.21875 54.742188 97.804688 54.972656 C 98.394531 55.203125 99.207031 55.410156 100.25 55.589844 C 102.199219 55.917969 103.578125 56.410156 104.390625 57.066406 C 105.199219 57.722656 105.605469 58.632812 105.605469 59.796875 C 105.605469 60.628906 105.371094 61.363281 104.902344 62 C 104.433594 62.632812 103.765625 63.125 102.90625 63.472656 C 102.042969 63.824219 101.046875 64 99.914062 64 C 98.425781 64 97.160156 63.710938 96.109375 63.128906 C 95.0625 62.546875 94.261719 61.769531 93.710938 60.800781 L 95.253906 59.546875 C 95.652344 60.429688 96.246094 61.109375 97.027344 61.597656 C 97.804688 62.082031 98.785156 62.324219 99.960938 62.324219 C 101.121094 62.324219 102.042969 62.109375 102.726562 61.683594 C 103.410156 61.257812 103.753906 60.660156 103.753906 59.882812 C 103.753906 59.226562 103.453125 58.707031 102.859375 58.316406 C 102.265625 57.929688 101.210938 57.601562 99.691406 57.335938 C 97.730469 56.992188 96.339844 56.5 95.519531 55.855469 C 94.703125 55.214844 94.292969 54.320312 94.292969 53.171875 C 94.292969 52.382812 94.515625 51.652344 94.960938 50.980469 C 95.410156 50.308594 96.046875 49.777344 96.882812 49.382812 C 97.714844 48.984375 98.679688 48.789062 99.78125 48.789062 C 102.414062 48.789062 104.308594 49.832031 105.472656 51.917969 "/>
<path style=" stroke:none;fill-rule:nonzero;fill:rgb(0%,0%,0%);fill-opacity:1;" d="M 116.550781 53.140625 C 117.3125 53.652344 117.914062 54.386719 118.34375 55.34375 L 116.648438 56.148438 C 116.171875 54.671875 115.183594 53.933594 113.683594 53.933594 C 112.566406 53.933594 111.691406 54.308594 111.058594 55.0625 C 110.429688 55.816406 110.113281 56.855469 110.113281 58.183594 C 110.113281 59.511719 110.429688 60.550781 111.058594 61.304688 C 111.691406 62.058594 112.566406 62.433594 113.683594 62.433594 C 114.542969 62.433594 115.238281 62.238281 115.769531 61.84375 C 116.296875 61.445312 116.640625 60.875 116.804688 60.128906 L 118.457031 60.710938 C 118.070312 61.757812 117.476562 62.566406 116.671875 63.136719 C 115.867188 63.714844 114.886719 64 113.726562 64 C 112.046875 64 110.726562 63.484375 109.765625 62.457031 C 108.808594 61.425781 108.328125 60.003906 108.328125 58.183594 C 108.328125 56.363281 108.808594 54.941406 109.765625 53.910156 C 110.726562 52.882812 112.046875 52.367188 113.726562 52.367188 C 114.84375 52.367188 115.78125 52.625 116.550781 53.140625 "/>
<path style=" stroke:none;fill-rule:nonzero;fill:rgb(0%,0%,0%);fill-opacity:1;" d="M 130.148438 53.464844 C 130.96875 54.195312 131.375 55.246094 131.375 56.617188 L 131.375 63.777344 L 129.589844 63.777344 L 129.589844 57.242188 C 129.589844 56.082031 129.339844 55.238281 128.84375 54.714844 C 128.34375 54.195312 127.679688 53.933594 126.847656 53.933594 C 126.265625 53.933594 125.710938 54.066406 125.183594 54.335938 C 124.65625 54.605469 124.222656 55.03125 123.890625 55.621094 C 123.554688 56.210938 123.386719 56.953125 123.386719 57.847656 L 123.386719 63.777344 L 121.601562 63.777344 L 121.601562 47.445312 L 123.386719 47.445312 L 123.386719 54.269531 C 123.757812 53.628906 124.261719 53.148438 124.894531 52.835938 C 125.527344 52.523438 126.234375 52.367188 127.023438 52.367188 C 128.289062 52.367188 129.328125 52.734375 130.148438 53.464844 "/>
<path style=" stroke:none;fill-rule:nonzero;fill:rgb(0%,0%,0%);fill-opacity:1;" d="M 137.464844 55.050781 C 136.828125 55.8125 136.507812 56.855469 136.507812 58.183594 C 136.507812 59.511719 136.828125 60.554688 137.464844 61.316406 C 138.105469 62.078125 138.992188 62.457031 140.121094 62.457031 C 141.253906 62.457031 142.136719 62.078125 142.777344 61.316406 C 143.417969 60.554688 143.738281 59.511719 143.738281 58.183594 C 143.738281 56.855469 143.417969 55.8125 142.777344 55.050781 C 142.136719 54.289062 141.253906 53.910156 140.121094 53.910156 C 138.992188 53.910156 138.105469 54.289062 137.464844 55.050781 M 144.082031 53.910156 C 145.042969 54.941406 145.519531 56.363281 145.519531 58.183594 C 145.519531 60.003906 145.042969 61.425781 144.082031 62.457031 C 143.121094 63.488281 141.800781 64 140.121094 64 C 138.441406 64 137.121094 63.488281 136.160156 62.457031 C 135.203125 61.425781 134.722656 60.003906 134.722656 58.183594 C 134.722656 56.363281 135.203125 54.941406 136.160156 53.910156 C 137.121094 52.882812 138.441406 52.367188 140.121094 52.367188 C 141.800781 52.367188 143.121094 52.882812 144.082031 53.910156 "/>
<path style=" stroke:none;fill-rule:nonzero;fill:rgb(0%,0%,0%);fill-opacity:1;" d="M 151.03125 55.050781 C 150.394531 55.8125 150.074219 56.855469 150.074219 58.183594 C 150.074219 59.511719 150.394531 60.554688 151.03125 61.316406 C 151.671875 62.078125 152.558594 62.457031 153.6875 62.457031 C 154.816406 62.457031 155.703125 62.078125 156.34375 61.316406 C 156.980469 60.554688 157.300781 59.511719 157.300781 58.183594 C 157.300781 56.855469 156.980469 55.8125 156.34375 55.050781 C 155.703125 54.289062 154.816406 53.910156 153.6875 53.910156 C 152.558594 53.910156 151.671875 54.289062 151.03125 55.050781 M 157.648438 53.910156 C 158.609375 54.941406 159.085938 56.363281 159.085938 58.183594 C 159.085938 60.003906 158.609375 61.425781 157.648438 62.457031 C 156.6875 63.488281 155.367188 64 153.6875 64 C 152.007812 64 150.6875 63.488281 149.726562 62.457031 C 148.769531 61.425781 148.289062 60.003906 148.289062 58.183594 C 148.289062 56.363281 148.769531 54.941406 149.726562 53.910156 C 150.6875 52.882812 152.007812 52.367188 153.6875 52.367188 C 155.367188 52.367188 156.6875 52.882812 157.648438 53.910156 "/>
<path style=" stroke:none;fill-rule:nonzero;fill:rgb(0%,0%,0%);fill-opacity:1;" d="M 164.242188 60.777344 C 164.242188 61.347656 164.328125 61.738281 164.496094 61.953125 C 164.667969 62.167969 164.984375 62.277344 165.445312 62.277344 C 165.757812 62.277344 166.027344 62.253906 166.261719 62.210938 C 166.492188 62.164062 166.761719 62.085938 167.074219 61.964844 L 166.785156 63.6875 C 166.292969 63.894531 165.742188 64 165.132812 64 C 164.226562 64 163.550781 63.753906 163.113281 63.261719 C 162.675781 62.769531 162.457031 62.015625 162.457031 61.003906 L 162.457031 47.445312 L 164.242188 47.445312 Z M 164.242188 60.777344 "/>
<path style="fill:none;stroke-width:2;stroke-linecap:butt;stroke-linejoin:miter;stroke:rgb(0%,0%,0%);stroke-opacity:1;stroke-miterlimit:4;" d="M -0.00248878 0.000215076 L 4.871468 0.000215076 C 14.356776 0.000215076 16.541653 2.687394 16.541653 8.648425 L 16.541653 24.771497 C 16.541653 29.64299 17.297957 32.49779 23.006999 33.503518 L 23.006999 33.843998 C 17.297957 34.849726 16.541653 37.704526 16.541653 42.576019 L 16.541653 58.699091 C 16.541653 64.660122 14.356776 67.347301 4.871468 67.347301 L -0.00248878 67.347301 " transform="matrix(0.743749,0,0,-0.745729,65.978414,69.890785)"/>
<path style="fill:none;stroke-width:2;stroke-linecap:butt;stroke-linejoin:miter;stroke:rgb(0%,0%,0%);stroke-opacity:1;stroke-miterlimit:4;" d="M 0.00234787 -0.000301951 L -4.871609 -0.000301951 C -14.356917 -0.000301951 -16.541794 -2.687481 -16.541794 -8.648512 L -16.541794 -24.771584 C -16.541794 -29.643077 -17.298098 -32.497877 -23.00714 -33.503605 L -23.00714 -33.844085 C -17.298098 -34.849813 -16.541794 -37.704613 -16.541794 -42.576106 L -16.541794 -58.699178 C -16.541794 -64.660209 -14.356917 -67.347388 -4.871609 -67.347388 L 0.00234787 -67.347388 " transform="matrix(0.743749,0,0,-0.745729,39.732629,19.667744)"/>
<path style=" stroke:none;fill-rule:nonzero;fill:rgb(0%,0%,0%);fill-opacity:1;" d="M 45.449219 44.511719 L 53.839844 44.511719 C 56.160156 44.511719 57.921875 43.988281 59.125 42.945312 C 60.332031 41.902344 60.933594 40.394531 60.933594 38.425781 C 60.933594 36.457031 60.332031 34.957031 59.125 33.929688 C 57.921875 32.898438 56.160156 32.386719 53.839844 32.386719 L 45.449219 32.386719 Z M 53.839844 46.882812 L 45.449219 46.882812 L 45.449219 59.542969 L 42.90625 59.542969 L 42.90625 30.015625 L 53.882812 30.015625 C 56.828125 30.015625 59.1875 30.765625 60.957031 32.273438 C 62.726562 33.78125 63.613281 35.832031 63.613281 38.425781 C 63.613281 40.574219 63 42.363281 61.78125 43.792969 C 60.5625 45.226562 58.882812 46.152344 56.738281 46.570312 L 62.988281 59.542969 L 59.996094 59.542969 Z M 53.839844 46.882812 "/>
<path style=" stroke:none;fill-rule:nonzero;fill:rgb(0%,0%,0%);fill-opacity:1;" d="M 69.601562 70.636719 L 65.980469 70.636719 L 65.980469 69.144531 L 69.601562 69.144531 C 76.394531 69.144531 77.539062 67.386719 77.539062 63.441406 L 77.539062 51.417969 C 77.539062 48.554688 77.820312 46.050781 80.8125 44.777344 C 77.820312 43.507812 77.539062 41.003906 77.539062 38.140625 L 77.539062 26.117188 C 77.539062 22.171875 76.394531 20.414062 69.601562 20.414062 L 65.980469 20.414062 L 65.980469 18.921875 L 69.601562 18.921875 C 76.558594 18.921875 79.027344 20.804688 79.027344 26.117188 L 79.027344 38.140625 C 79.027344 41.566406 79.441406 43.25 83.21875 43.917969 L 83.835938 44.027344 L 83.835938 45.53125 L 83.21875 45.640625 C 79.441406 46.308594 79.027344 47.992188 79.027344 51.417969 L 79.027344 63.441406 C 79.027344 68.753906 76.558594 70.636719 69.601562 70.636719 "/>
<path style=" stroke:none;fill-rule:nonzero;fill:rgb(0%,0%,0%);fill-opacity:1;" d="M 39.730469 70.636719 L 36.109375 70.636719 C 29.152344 70.636719 26.683594 68.753906 26.683594 63.441406 L 26.683594 51.417969 C 26.683594 47.992188 26.269531 46.308594 22.488281 45.640625 L 21.875 45.53125 L 21.875 44.027344 L 22.488281 43.917969 C 26.269531 43.25 26.683594 41.5625 26.683594 38.140625 L 26.683594 26.117188 C 26.683594 20.804688 29.152344 18.921875 36.109375 18.921875 L 39.730469 18.921875 L 39.730469 20.414062 L 36.109375 20.414062 C 29.320312 20.414062 28.171875 22.171875 28.171875 26.117188 L 28.171875 38.140625 C 28.171875 41.003906 27.890625 43.507812 24.898438 44.777344 C 27.890625 46.050781 28.171875 48.554688 28.171875 51.417969 L 28.171875 63.441406 C 28.171875 67.386719 29.320312 69.144531 36.109375 69.144531 L 39.730469 69.144531 Z M 39.730469 70.636719 "/>
<path style=" stroke:none;fill-rule:nonzero;fill:rgb(0%,0%,0%);fill-opacity:1;" d="M 45.449219 44.511719 L 53.839844 44.511719 C 56.160156 44.511719 57.921875 43.988281 59.125 42.945312 C 60.332031 41.902344 60.933594 40.394531 60.933594 38.425781 C 60.933594 36.457031 60.332031 34.957031 59.125 33.929688 C 57.921875 32.898438 56.160156 32.386719 53.839844 32.386719 L 45.449219 32.386719 Z M 53.839844 46.882812 L 45.449219 46.882812 L 45.449219 59.542969 L 42.90625 59.542969 L 42.90625 30.015625 L 53.882812 30.015625 C 56.828125 30.015625 59.1875 30.765625 60.957031 32.273438 C 62.726562 33.78125 63.613281 35.832031 63.613281 38.425781 C 63.613281 40.574219 63 42.363281 61.78125 43.792969 C 60.5625 45.226562 58.882812 46.152344 56.738281 46.570312 L 62.988281 59.542969 L 59.996094 59.542969 Z M 53.839844 46.882812 "/>
</g>
</svg>
